<svg width="138" height="28" viewBox="0 0 138 28" fill="none" xmlns="http://www.w3.org/2000/svg">
<path d="M40.8322 23V17.566L41.5352 19.428L35.6832 9.7H38.9512L43.4352 17.167H41.5542L46.0572 9.7H49.0782L43.2262 19.428L43.9102 17.566V23H40.8322ZM53.8021 23.152C52.9534 23.152 52.1934 22.9873 51.5221 22.658C50.8634 22.3287 50.3504 21.8283 49.9831 21.157C49.6158 20.473 49.4321 19.6053 49.4321 18.554V12.778H52.3961V18.117C52.3961 18.9657 52.5734 19.5927 52.9281 19.998C53.2954 20.3907 53.8084 20.587 54.4671 20.587C54.9231 20.587 55.3284 20.492 55.6831 20.302C56.0378 20.0993 56.3164 19.7953 56.5191 19.39C56.7218 18.972 56.8231 18.4527 56.8231 17.832V12.778H59.7871V23H56.9751V20.188L57.4881 21.005C57.1461 21.7143 56.6394 22.2527 55.9681 22.62C55.3094 22.9747 54.5874 23.152 53.8021 23.152ZM68.746 12.626C69.5567 12.626 70.2787 12.7907 70.912 13.12C71.558 13.4367 72.0647 13.9307 72.432 14.602C72.7994 15.2607 72.983 16.1093 72.983 17.148V23H70.019V17.604C70.019 16.7807 69.8354 16.1727 69.468 15.78C69.1134 15.3873 68.6067 15.191 67.948 15.191C67.4794 15.191 67.055 15.2923 66.675 15.495C66.3077 15.685 66.0164 15.9827 65.801 16.388C65.5984 16.7933 65.497 17.3127 65.497 17.946V23H62.533V12.778H65.364V15.609L64.832 14.754C65.1994 14.07 65.725 13.5443 66.409 13.177C67.093 12.8097 67.872 12.626 68.746 12.626ZM80.608 23.152C79.5186 23.152 78.5496 22.924 77.701 22.468C76.865 22.012 76.2 21.3913 75.706 20.606C75.2246 19.808 74.984 18.9023 74.984 17.889C74.984 16.863 75.2246 15.9573 75.706 15.172C76.2 14.374 76.865 13.7533 77.701 13.31C78.5496 12.854 79.5186 12.626 80.608 12.626C81.6846 12.626 82.6473 12.854 83.496 13.31C84.3446 13.7533 85.0096 14.3677 85.491 15.153C85.9723 15.9383 86.213 16.8503 86.213 17.889C86.213 18.9023 85.9723 19.808 85.491 20.606C85.0096 21.3913 84.3446 22.012 83.496 22.468C82.6473 22.924 81.6846 23.152 80.608 23.152ZM80.608 20.72C81.102 20.72 81.5453 20.606 81.938 20.378C82.3306 20.15 82.641 19.827 82.869 19.409C83.097 18.9783 83.211 18.4717 83.211 17.889C83.211 17.2937 83.097 16.787 82.869 16.369C82.641 15.951 82.3306 15.628 81.938 15.4C81.5453 15.172 81.102 15.058 80.608 15.058C80.114 15.058 79.6706 15.172 79.278 15.4C78.8853 15.628 78.5686 15.951 78.328 16.369C78.1 16.787 77.986 17.2937 77.986 17.889C77.986 18.4717 78.1 18.9783 78.328 19.409C78.5686 19.827 78.8853 20.15 79.278 20.378C79.6706 20.606 80.114 20.72 80.608 20.72ZM94.7682 23.228C93.7422 23.228 92.7858 23.0633 91.8992 22.734C91.0252 22.392 90.2652 21.9107 89.6192 21.29C88.9732 20.6693 88.4665 19.941 88.0992 19.105C87.7445 18.269 87.5672 17.3507 87.5672 16.35C87.5672 15.3493 87.7445 14.431 88.0992 13.595C88.4665 12.759 88.9732 12.0307 89.6192 11.41C90.2778 10.7893 91.0442 10.3143 91.9182 9.985C92.7922 9.643 93.7485 9.472 94.7872 9.472C95.9398 9.472 96.9785 9.67467 97.9032 10.08C98.8405 10.4727 99.6258 11.0553 100.259 11.828L98.2832 13.652C97.8272 13.1327 97.3205 12.7463 96.7632 12.493C96.2058 12.227 95.5978 12.094 94.9392 12.094C94.3185 12.094 93.7485 12.1953 93.2292 12.398C92.7098 12.6007 92.2602 12.892 91.8802 13.272C91.5002 13.652 91.2025 14.1017 90.9872 14.621C90.7845 15.1403 90.6832 15.7167 90.6832 16.35C90.6832 16.9833 90.7845 17.5597 90.9872 18.079C91.2025 18.5983 91.5002 19.048 91.8802 19.428C92.2602 19.808 92.7098 20.0993 93.2292 20.302C93.7485 20.5047 94.3185 20.606 94.9392 20.606C95.5978 20.606 96.2058 20.4793 96.7632 20.226C97.3205 19.96 97.8272 19.561 98.2832 19.029L100.259 20.853C99.6258 21.6257 98.8405 22.2147 97.9032 22.62C96.9785 23.0253 95.9335 23.228 94.7682 23.228ZM106.64 23.152C105.551 23.152 104.582 22.924 103.733 22.468C102.897 22.012 102.232 21.3913 101.738 20.606C101.257 19.808 101.016 18.9023 101.016 17.889C101.016 16.863 101.257 15.9573 101.738 15.172C102.232 14.374 102.897 13.7533 103.733 13.31C104.582 12.854 105.551 12.626 106.64 12.626C107.717 12.626 108.68 12.854 109.528 13.31C110.377 13.7533 111.042 14.3677 111.523 15.153C112.005 15.9383 112.245 16.8503 112.245 17.889C112.245 18.9023 112.005 19.808 111.523 20.606C111.042 21.3913 110.377 22.012 109.528 22.468C108.68 22.924 107.717 23.152 106.64 23.152ZM106.64 20.72C107.134 20.72 107.578 20.606 107.97 20.378C108.363 20.15 108.673 19.827 108.901 19.409C109.129 18.9783 109.243 18.4717 109.243 17.889C109.243 17.2937 109.129 16.787 108.901 16.369C108.673 15.951 108.363 15.628 107.97 15.4C107.578 15.172 107.134 15.058 106.64 15.058C106.146 15.058 105.703 15.172 105.31 15.4C104.918 15.628 104.601 15.951 104.36 16.369C104.132 16.787 104.018 17.2937 104.018 17.889C104.018 18.4717 104.132 18.9783 104.36 19.409C104.601 19.827 104.918 20.15 105.31 20.378C105.703 20.606 106.146 20.72 106.64 20.72ZM118.615 23.152C117.653 23.152 116.785 22.9367 116.012 22.506C115.24 22.0627 114.625 21.4483 114.169 20.663C113.726 19.8777 113.504 18.953 113.504 17.889C113.504 16.8123 113.726 15.8813 114.169 15.096C114.625 14.3107 115.24 13.7027 116.012 13.272C116.785 12.8413 117.653 12.626 118.615 12.626C119.477 12.626 120.23 12.816 120.876 13.196C121.522 13.576 122.023 14.1523 122.377 14.925C122.732 15.6977 122.909 16.6857 122.909 17.889C122.909 19.0797 122.738 20.0677 122.396 20.853C122.054 21.6257 121.56 22.202 120.914 22.582C120.281 22.962 119.515 23.152 118.615 23.152ZM119.128 20.72C119.61 20.72 120.047 20.606 120.439 20.378C120.832 20.15 121.142 19.827 121.37 19.409C121.611 18.9783 121.731 18.4717 121.731 17.889C121.731 17.2937 121.611 16.787 121.37 16.369C121.142 15.951 120.832 15.628 120.439 15.4C120.047 15.172 119.61 15.058 119.128 15.058C118.634 15.058 118.191 15.172 117.798 15.4C117.406 15.628 117.089 15.951 116.848 16.369C116.62 16.787 116.506 17.2937 116.506 17.889C116.506 18.4717 116.62 18.9783 116.848 19.409C117.089 19.827 117.406 20.15 117.798 20.378C118.191 20.606 118.634 20.72 119.128 20.72ZM121.807 23V20.91L121.864 17.87L121.674 14.849V8.902H124.638V23H121.807ZM132.455 23.152C131.289 23.152 130.263 22.924 129.377 22.468C128.503 22.012 127.825 21.3913 127.344 20.606C126.862 19.808 126.622 18.9023 126.622 17.889C126.622 16.863 126.856 15.9573 127.325 15.172C127.806 14.374 128.458 13.7533 129.282 13.31C130.105 12.854 131.036 12.626 132.075 12.626C133.075 12.626 133.975 12.8413 134.773 13.272C135.583 13.69 136.223 14.298 136.692 15.096C137.16 15.8813 137.395 16.825 137.395 17.927C137.395 18.041 137.388 18.174 137.376 18.326C137.363 18.4653 137.35 18.5983 137.338 18.725H129.035V16.996H135.78L134.64 17.509C134.64 16.977 134.532 16.5147 134.317 16.122C134.101 15.7293 133.804 15.4253 133.424 15.21C133.044 14.982 132.6 14.868 132.094 14.868C131.587 14.868 131.137 14.982 130.745 15.21C130.365 15.4253 130.067 15.7357 129.852 16.141C129.636 16.5337 129.529 17.0023 129.529 17.547V18.003C129.529 18.5603 129.649 19.0543 129.89 19.485C130.143 19.903 130.491 20.226 130.935 20.454C131.391 20.6693 131.923 20.777 132.531 20.777C133.075 20.777 133.55 20.6947 133.956 20.53C134.374 20.3653 134.754 20.1183 135.096 19.789L136.673 21.499C136.204 22.031 135.615 22.4427 134.906 22.734C134.196 23.0127 133.379 23.152 132.455 23.152Z" fill="black"/>
<path d="M9.48059e-06 13.3468V15.6386C0.622125 15.6532 1.13196 15.8497 1.52536 16.228C1.91518 16.6025 2.17672 17.1104 2.30942 17.7481C2.4377 18.3907 2.50833 19.4934 2.51247 21.0567C2.52102 22.6248 2.54557 23.6508 2.58723 24.1501C2.66117 24.946 2.79442 25.5786 2.99333 26.0533C3.19224 26.528 3.43695 26.9065 3.72745 27.1895C4.02154 27.4773 4.39454 27.6933 4.84643 27.8418C5.15321 27.9471 5.65532 28 6.35109 28H7.03169V25.7941H6.65428C5.81257 25.7941 5.25694 25.617 4.97913 25.2673C4.70545 24.9166 4.56861 24.1255 4.56861 22.8981C4.56861 20.5585 4.53137 19.0716 4.45661 18.4439C4.32805 17.4082 4.06734 16.5739 3.68165 15.9499C3.29155 15.3319 2.74034 14.8475 2.02746 14.4976C2.96022 13.9846 3.61516 13.3036 3.99671 12.4547C4.37826 11.6059 4.56862 10.177 4.56862 8.16337C4.56862 6.33681 4.58544 5.24791 4.62655 4.88827C4.68504 4.26052 4.84229 3.8242 5.10741 3.57445C5.36895 3.32983 5.88733 3.20509 6.65428 3.20509H7.03169V1H6.35108C5.5593 1 4.98326 1.07182 4.62654 1.22518C4.10816 1.43146 3.68165 1.77625 3.34176 2.2609C3.00187 2.75014 2.77758 3.36331 2.67826 4.1023C2.57867 4.84507 2.52101 6.05873 2.51246 7.74109C2.50832 9.42913 2.43769 10.5896 2.30941 11.2322C2.17671 11.8748 1.91517 12.3829 1.52535 12.7572C1.13194 13.1308 0.622119 13.3274 9.48059e-06 13.3468Z" fill="#199BE2"/>
<path d="M31.0242 15.6246V13.3328C30.4021 13.3183 29.8923 13.1217 29.4989 12.7434C29.1091 12.3689 28.8475 11.8611 28.7148 11.2233C28.5865 10.5807 28.5159 9.47806 28.5118 7.91475C28.5032 6.3466 28.4787 5.32059 28.437 4.82137C28.3631 4.02541 28.2298 3.39279 28.0309 2.91814C27.832 2.44348 27.5873 2.06494 27.2968 1.78198C27.0027 1.49416 26.6297 1.27816 26.1778 1.12966C25.871 1.02436 25.3689 0.971436 24.6732 0.971436H23.9926V3.17733H24.37C25.2117 3.17733 25.7673 3.35445 26.0451 3.7041C26.3188 4.05483 26.4556 4.84593 26.4556 6.07335C26.4556 8.4129 26.4929 9.8998 26.5676 10.5275C26.6962 11.5633 26.9569 12.3976 27.3426 13.0215C27.7327 13.6396 28.2839 14.1239 28.9968 14.4739C28.064 14.9869 27.4091 15.6678 27.0275 16.5167C26.646 17.3656 26.4556 18.7944 26.4556 20.8081C26.4556 22.6346 26.4388 23.7235 26.3977 24.0832C26.3392 24.7109 26.182 25.1472 25.9168 25.397C25.6553 25.6416 25.1369 25.7663 24.37 25.7663H23.9926V27.9714H24.6732C25.4649 27.9714 26.041 27.8996 26.3977 27.7463C26.9161 27.54 27.3426 27.1952 27.6825 26.7105C28.0224 26.2213 28.2467 25.6081 28.346 24.8691C28.4456 24.1264 28.5032 22.9127 28.5118 21.2303C28.5159 19.5423 28.5866 18.3818 28.7148 17.7392C28.8475 17.0966 29.1091 16.5885 29.4989 16.2143C29.8923 15.8406 30.4021 15.644 31.0242 15.6246Z" fill="#199BE2"/>
<path d="M11 4.53664V20.1678C11 20.6317 11.5414 20.885 11.8977 20.5878L15.5059 17.5786L17.8835 23.0475C18.0017 23.3192 18.3173 23.4436 18.589 23.3253L19.5397 22.9119L11.3232 4.04573C11.1407 4.12475 11 4.30164 11 4.53664Z" fill="#35C1F1"/>
<path d="M20.731 21.8097L18.3718 16.3822L22.501 16.0121C22.9633 15.9708 23.1672 15.4085 22.8389 15.0802L11.9156 4.15736C11.7443 3.98608 11.5113 3.96416 11.3232 4.04572L19.5397 22.9129L20.4532 22.5158C20.7249 22.3975 20.8493 22.0814 20.731 21.8097Z" fill="url(#paint0_linear_2_27)"/>
<path d="M20.731 21.8097L18.3718 16.3822L22.501 16.0121C22.9633 15.9708 23.1672 15.4085 22.8389 15.0802L11.9156 4.15736C11.7443 3.98608 11.5113 3.96416 11.3232 4.04572L19.5397 22.9129L20.4532 22.5158C20.7249 22.3975 20.8493 22.0814 20.731 21.8097Z" fill="#199BE2"/>
<defs>
<linearGradient id="paint0_linear_2_27" x1="14.7642" y1="4.16093" x2="21.9876" y2="20.8493" gradientUnits="userSpaceOnUse">
<stop stop-color="#46DFF9"/>
<stop offset="1" stop-color="#07D6F9"/>
</linearGradient>
</defs>
</svg>
